<?xml version="1.0" encoding="UTF-8" standalone="no"?>
<!-- Created with Inkscape (http://www.inkscape.org/) -->

<svg
   version="1.1"
   id="svg253"
   width="182.88345"
   height="800.74677"
   viewBox="0 0 182.88346 800.74676"
   sodipodi:docname="16_Lykill.svg"
   inkscape:version="1.2.2 (b0a8486541, 2022-12-01)"
   xmlns:inkscape="http://www.inkscape.org/namespaces/inkscape"
   xmlns:sodipodi="http://sodipodi.sourceforge.net/DTD/sodipodi-0.dtd"
   xmlns="http://www.w3.org/2000/svg"
   xmlns:svg="http://www.w3.org/2000/svg">
  <defs
     id="defs257" />
  <sodipodi:namedview
     id="namedview255"
     pagecolor="#ffffff"
     bordercolor="#000000"
     borderopacity="0.25"
     inkscape:showpageshadow="2"
     inkscape:pageopacity="0.0"
     inkscape:pagecheckerboard="0"
     inkscape:deskcolor="#d1d1d1"
     showgrid="false"
     inkscape:zoom="1.368116"
     inkscape:cx="59.936438"
     inkscape:cy="403.47456"
     inkscape:window-width="2560"
     inkscape:window-height="1368"
     inkscape:window-x="0"
     inkscape:window-y="0"
     inkscape:window-maximized="1"
     inkscape:current-layer="g259" />
  <g
     inkscape:groupmode="layer"
     inkscape:label="Image"
     id="g259"
     transform="translate(-1426.0817,71.377856)">
    <path
       style="fill:#000000;stroke-width:0.270882"
       d="m 1427.6072,678.78506 c 6.6123,-30.6859 25.0798,-59.2615 20.8554,-91.8578 0.927,-99.11 6.3978,-198.1405 8.7766,-297.2312 2.725,-66.4926 1.3751,-133.171 4.4046,-199.624594 0.2919,-28.9426 -18.9787,-51.4944 -30.3283,-76.4133 -10.577,-31.8659 12.1555,-65.4952 37.6069,-82.9125 32.9173,0.722 -7.0922,44.736 1.9014,61.9220005 19.4238,22.9690995 62.0062,17.1258 61.0535,-17.7997005 0.7788,-14.9953 13.9626,-38.729 20.5013,-11.0298 7.7658,30.9995005 5.0093,67.2619 -18.7997,90.8351 -27.3075,29.599 -17.041,72.128294 -20.7789,108.487694 -5.8133,140.5358 -5.0421,281.2685 -11.2519,421.7843 -5.385,25.3661 0.4085,51.1106 11.0264,74.2664 10.8572,26.2089 -3.3115,63.3542 -34.7214,64.8309 -25.4652,3.6695 -53.7979,-18.1623 -50.2459,-45.2575 z m 132.3646,-108.6745 c 0.388,1.1873 -0.5215,0.1174 0,0 z"
       id="path263"
       sodipodi:nodetypes="ssccsssssssssssssssssssssssssssssssssssssssssssssssssssssssssssssssssssssssssssssssssssssssccsssssssssssssssssssssssssssssssssscsssssssss" />
  </g>
</svg>
