<?xml version="1.0" encoding="UTF-8" standalone="no"?>
<!-- Created with Inkscape (http://www.inkscape.org/) -->

<svg
   width="473.31055mm"
   height="334.8624mm"
   viewBox="0 0 473.31055 334.8624"
   version="1.1"
   id="svg1365"
   xml:space="preserve"
   inkscape:version="1.2.2 (b0a8486541, 2022-12-01)"
   sodipodi:docname="Hilla1_Final.svg"
   xmlns:inkscape="http://www.inkscape.org/namespaces/inkscape"
   xmlns:sodipodi="http://sodipodi.sourceforge.net/DTD/sodipodi-0.dtd"
   xmlns="http://www.w3.org/2000/svg"
   xmlns:svg="http://www.w3.org/2000/svg"><sodipodi:namedview
     id="namedview1367"
     pagecolor="#ffffff"
     bordercolor="#000000"
     borderopacity="0.25"
     inkscape:showpageshadow="2"
     inkscape:pageopacity="0.0"
     inkscape:pagecheckerboard="0"
     inkscape:deskcolor="#d1d1d1"
     inkscape:document-units="mm"
     showgrid="false"
     inkscape:zoom="0.4204826"
     inkscape:cx="1067.8206"
     inkscape:cy="865.67197"
     inkscape:window-width="2560"
     inkscape:window-height="1368"
     inkscape:window-x="0"
     inkscape:window-y="0"
     inkscape:window-maximized="1"
     inkscape:current-layer="layer1" /><defs
     id="defs1362" /><g
     inkscape:label="Layer 1"
     inkscape:groupmode="layer"
     id="layer1"
     transform="translate(-20.342792,135.59402)"><rect
       style="fill:#000000;stroke-width:0.784252"
       id="rect1421"
       width="470"
       height="330"
       x="22.044931"
       y="-132.48563" /><rect
       style="fill:#ff0000;stroke-width:0.047012"
       id="rect1688-7-5-3-2-9-1-2-7-0-9-6-0-6-2-6-1"
       width="7"
       height="100"
       x="471.86938"
       y="88.140366"
       ry="1.3871717" /><rect
       style="fill:#ff0000;stroke-width:0.047012"
       id="rect1688-7-5-3-2-9-1-2-7-0-9-6-0-6-2-6"
       width="7"
       height="100"
       x="455.01166"
       y="88.140366"
       ry="1.3779063" /><rect
       style="fill:#ff0000;stroke-width:0.0514991"
       id="rect1688-7-5-3-2-9-1-2-7-0-9-6-0-6-2"
       width="7"
       height="120"
       x="438.1539"
       y="68.140366"
       ry="1.3358618" /><rect
       style="fill:#ff0000;stroke-width:0.0514991"
       id="rect1688-7-5-3-2-9-1-2-7-0-9-6-0-6"
       width="7"
       height="120"
       x="421.29617"
       y="68.140366"
       ry="1.4471325" /><rect
       style="fill:#ff0000;stroke-width:0.0684737"
       id="rect1688-7-5-3-2-9-1-2-7-0-9-6-0"
       width="11"
       height="135"
       x="400.43845"
       y="53.140362"
       ry="1.7808771" /><rect
       style="fill:#ff0000;stroke-width:0.0684737"
       id="rect1688-7-5-3-2-9-1-2-7-0-9-6"
       width="11"
       height="135"
       x="379.58072"
       y="53.140362"
       ry="1.4952546" /><rect
       style="fill:#ff0000;stroke-width:0.0697303"
       id="rect1688-7-5-3-2-9-1-2-7-0-9-3"
       width="11"
       height="140"
       x="358.72296"
       y="48.140362"
       ry="1.1178669" /><rect
       style="fill:#ff0000;stroke-width:0.0697303"
       id="rect1688-7-5-3-2-9-1-2-7-0-9"
       width="11"
       height="140"
       x="337.86523"
       y="48.140362"
       ry="1.3385983" /><rect
       style="fill:#ff0000;stroke-width:0.0797625"
       id="rect1688-7-5-3-2-9-1-2-7-0"
       width="13"
       height="155"
       x="315.00751"
       y="33.140362"
       ry="1.6187719" /><rect
       style="fill:#ff0000;stroke-width:0.0797625"
       id="rect1688-7-5-3-2-9-1-2-7"
       width="13"
       height="155"
       x="292.14975"
       y="33.140362"
       ry="1.4035901" /><rect
       style="fill:#ff0000;stroke-width:0.0866862"
       id="rect1688-7-5-3-2-9-1-2"
       width="14"
       height="170"
       x="268.29202"
       y="18.140364"
       ry="1.3876998" /><rect
       style="fill:#ff0000;stroke-width:0.0866862"
       id="rect1688-7-5-3-2-9-1"
       width="14"
       height="170"
       x="244.4343"
       y="18.140364"
       ry="1.3830383" /><rect
       style="fill:#ff0000;stroke-width:0.0910387"
       id="rect1688-7-5-3-2-9"
       width="15"
       height="175"
       x="219.57655"
       y="13.140363"
       ry="1.7220349" /><rect
       style="fill:#ff0000;stroke-width:0.0910387"
       id="rect1688-7-5-3-2"
       width="15"
       height="175"
       x="194.71881"
       y="13.140363"
       ry="1.6094153" /><rect
       style="fill:#ff0000;stroke-width:0.0915574"
       id="rect1688-7-5-3"
       width="15"
       height="177"
       x="169.86108"
       y="11.140363"
       ry="1.4244059" /><rect
       style="fill:#ff0000;stroke-width:0.0915574"
       id="rect1688-7-5"
       width="15"
       height="177"
       x="145.00334"
       y="11.140363"
       ry="1.615762" /><rect
       style="fill:#ff0000;stroke-width:0.09233"
       id="rect1688-7"
       width="15"
       height="180"
       x="95.28788"
       y="8.1403627"
       ry="2.3035197" /><path
       style="fill:#ff0000;stroke-width:0.0716709"
       d="m 47.770105,-123.51411 c 8.11898,1.74951 15.67961,6.63569 24.30404,5.51797 26.22285,0.24528 52.424685,1.69276 78.642435,2.32216 17.59283,0.72097 35.23483,0.36381 52.81734,1.16536 7.65773,0.0772 13.62456,-5.02144 20.21769,-8.02434 8.43118,-2.79849 17.32894,3.21615 21.93726,9.95015 -0.19103,8.70937 -11.8364,-1.87649 -16.38353,0.50307 -6.07724,5.13921 -4.5312,16.40581 4.70951,16.15375 3.9675,0.20605 10.24705,3.69428 2.9183,5.42431 -8.20195,2.05468 -17.79638,1.32537 -24.03346,-4.9741 -7.8314,-7.22512 -19.08394,-4.508746 -28.70403,-5.49775 -37.18344,-1.53811 -74.41896,-1.33405 -111.597105,-2.97708 -6.71145,-1.42477 -13.52302,0.10808 -19.64965,2.91742 -6.93444,2.87263 -16.762468,-0.87619 -17.153178,-9.1867 -0.97089,-6.73766 4.80544,-14.23402 11.974378,-13.29422 z m 28.75346,35.02147 c -0.31414,0.10265 -0.0311,-0.13799 0,0 z"
       id="path263"
       sodipodi:nodetypes="ssccsssssssssssssssssssssssssssssssssssssssssssssssssssssssssssssssssssssssssssssssssssssssccsssssssssssssssssssssssssssssssssscsssssssss" /><path
       style="fill:#ff0000;stroke-width:0.0767903"
       d="m 48.633065,-85.233356 c 8.69891,1.87447 16.79958,7.10967 26.04005,5.91211 28.095915,0.26281 56.169285,1.81368 84.259735,2.48803 18.84947,0.77248 37.7516,0.3898 56.59001,1.24862 8.20471,0.0828 14.59776,-5.38014 21.66181,-8.59752 9.03341,-2.99839 18.56672,3.44587 23.50421,10.66087 -0.20468,9.33148 -12.68185,-2.01052 -17.55378,0.53901 -6.51132,5.5063 -4.85487,17.57765 5.04589,17.30759 4.25091,0.22076 10.979,3.95815 3.12677,5.81175 -8.78782,2.20145 -19.06757,1.42004 -25.75015,-5.32939 -8.39078,-7.74119 -20.44708,-4.83081 -30.75433,-5.89044 -39.83939,-1.64797 -79.73459,-1.42933 -119.568305,-3.18972 -7.19084,-1.52654 -14.48895,0.11579 -21.0532,3.12581 -7.42974,3.0778 -17.959795,-0.93878 -18.378415,-9.8429 -1.04024,-7.21893 5.14871,-15.25075 12.829705,-14.24382 z m 30.80728,37.523 c -0.33658,0.10999 -0.0333,-0.14784 0,0 z"
       id="path263-3"
       sodipodi:nodetypes="ssccsssssssssssssssssssssssssssssssssssssssssssssssssssssssssssssssssssssssssssssssssssssssccsssssssssssssssssssssssssssssssssscsssssssss" /><rect
       style="fill:#ff0000;stroke-width:0.109535"
       id="rect1688"
       width="20"
       height="190"
       x="35.572407"
       y="-1.859637"
       ry="1.8315148" /><path
       style="fill:#ff0000;stroke-width:0.0784968"
       d="m 48.920715,-44.111489 c 8.89222,1.91613 17.17291,7.26767 26.61872,6.0435 28.720265,0.26864 57.417505,1.85397 86.132175,2.54331 19.26834,0.78965 38.59051,0.39846 57.84755,1.27637 8.38703,0.0846 14.92216,-5.4997 22.14319,-8.78858 9.23414,-3.06502 18.9793,3.52244 24.02652,10.89777 -0.20923,9.53885 -12.96366,-2.05519 -17.94385,0.551 -6.65602,5.62866 -4.96277,17.96826 5.15802,17.6922 4.34536,0.22566 11.22296,4.0461099 3.19625,5.9408997 -8.98311,2.25037 -19.4913,1.4516 -26.32239,-5.4478197 -8.57724,-7.91321 -20.90145,-4.93816 -31.43774,-6.02134 -40.72472,-1.68459 -81.50646,-1.4611 -122.225365,-3.26061 -7.35065,-1.56045 -14.81095,0.11838 -21.52107,3.19528 -7.59484,3.1462 -18.358894,-0.95964 -18.786824,-10.06163 -1.06334,-7.37935 5.26314,-15.58965 13.114814,-14.56035 z m 31.4919,38.3568397 c -0.34406,0.11243 -0.034,-0.15112 0,0 z"
       id="path263-6"
       sodipodi:nodetypes="ssccsssssssssssssssssssssssssssssssssssssssssssssssssssssssssssssssssssssssssssssssssssssssccsssssssssssssssssssssssssssssssssscsssssssss" /><rect
       style="fill:#ff0000;stroke-width:0.109535"
       id="rect1688-5"
       width="20"
       height="190"
       x="65.430145"
       y="-1.859637"
       ry="2.258302" /><circle
       id="path1799"
       style="fill:#ff0000;stroke:#000000;stroke-width:0.264583"
       cx="300.74869"
       cy="64.323692"
       r="0.083813794" /><circle
       id="path1801"
       style="fill:#ff0000;stroke:#000000;stroke-width:0.264583"
       cx="240.04665"
       cy="104.05741"
       r="0.083813794" /><circle
       id="path1803"
       style="fill:#ff0000;stroke:#000000;stroke-width:0.264583"
       cx="185.68617"
       cy="76.08609"
       r="0.083813794" /><rect
       style="fill:#ff0000;stroke-width:0.09233"
       id="rect1688-7-6"
       width="15"
       height="180"
       x="120.14562"
       y="8.1403627"
       ry="2.328877" /><rect
       style="fill:#ff0000;stroke-width:0.264583"
       id="rect2360"
       width="454.5968"
       height="14.545078"
       x="29.294367"
       y="129.25549"
       ry="7.2725391" /><path
       id="rect2365"
       style="fill:#ff0000;stroke-width:0.510234"
       d="m 485.15519,-68.591133 -26.89738,19.858095 c -6.41628,4.737081 -6.37515,4.736312 -15.81646,4.733448 l -88.71256,-0.02691 c -9.4413,-0.0029 -9.43258,-0.0951 -17.56774,-6.861149 l -76.81569,-63.887931 c -8.13516,-6.76604 -6.05366,-8.80533 3.38762,-8.81957 l 222.20559,-0.39903 z"
       sodipodi:nodetypes="csssssscc" /><ellipse
       style="fill:#ff0000;stroke-width:0.264583"
       id="path400"
       cx="151.75687"
       cy="-108.40781"
       rx="14.708208"
       ry="13.532072" /><ellipse
       style="fill:#ff0000;stroke-width:0.264583"
       id="path400-3"
       cx="150.84424"
       cy="-69.285873"
       rx="14.708208"
       ry="13.532072" /><ellipse
       style="fill:#ff0000;stroke-width:0.264583"
       id="path400-6"
       cx="150.84424"
       cy="-27.448845"
       rx="14.708208"
       ry="13.532072" /></g></svg>
