<?xml version="1.0" encoding="UTF-8" standalone="no"?>
<!-- Created with Inkscape (http://www.inkscape.org/) -->

<svg
   width="472.35425mm"
   height="335.97754mm"
   viewBox="0 0 472.35425 335.97754"
   version="1.1"
   id="svg2444"
   xml:space="preserve"
   inkscape:version="1.2.2 (b0a8486541, 2022-12-01)"
   sodipodi:docname="Hilla2_Final.svg"
   xmlns:inkscape="http://www.inkscape.org/namespaces/inkscape"
   xmlns:sodipodi="http://sodipodi.sourceforge.net/DTD/sodipodi-0.dtd"
   xmlns="http://www.w3.org/2000/svg"
   xmlns:svg="http://www.w3.org/2000/svg"><sodipodi:namedview
     id="namedview2446"
     pagecolor="#ffffff"
     bordercolor="#000000"
     borderopacity="0.25"
     inkscape:showpageshadow="2"
     inkscape:pageopacity="0.0"
     inkscape:pagecheckerboard="0"
     inkscape:deskcolor="#d1d1d1"
     inkscape:document-units="mm"
     showgrid="false"
     inkscape:zoom="0.4204826"
     inkscape:cx="744.38276"
     inkscape:cy="592.1767"
     inkscape:window-width="2560"
     inkscape:window-height="1368"
     inkscape:window-x="0"
     inkscape:window-y="0"
     inkscape:window-maximized="1"
     inkscape:current-layer="layer1" /><defs
     id="defs2441" /><g
     inkscape:label="Layer 1"
     inkscape:groupmode="layer"
     id="layer1"
     transform="translate(-22.11169,-48.311775)"><rect
       style="fill:#333333;stroke-width:0.600005"
       id="rect2448"
       width="470"
       height="330"
       x="22.738605"
       y="51.188934" /><rect
       style="fill:#ff0000;stroke-width:0.220897"
       id="rect2658-0-6"
       width="120.80762"
       height="22.568325"
       x="35.464146"
       y="112.00246"
       ry="2.1381328" /><rect
       style="fill:#ff0000;stroke-width:0.220897"
       id="rect2658-0"
       width="120.80762"
       height="22.568325"
       x="35.464146"
       y="71.63781"
       ry="2.1381328" /><path
       style="fill:#ff0000;stroke-width:0.0559139"
       d="m 35.558173,209.70155 c 5.8077,-0.50781 11.59092,2.03326 17.44352,2.42989 5.29916,2.04829 10.95392,1.27562 16.43072,2.02924 5.92825,2.14191 12.19791,-0.13068 18.194589,1.49946 5.7764,0.58282 11.535864,-0.97718 17.266618,0.52418 5.93398,-0.26812 11.85533,-0.66362 17.81598,-0.29154 5.16617,0.28035 10.20039,0.42892 15.33033,0.44907 5.48701,1.42838 9.36995,-0.73223 13.38159,-3.97818 8.63128,0.57286 17.20219,2.32514 25.75673,3.67208 3.59329,2.16611 3.23551,5.2407 8.30218,3.63766 4.88225,0.26029 10.82946,-1.55029 15.16203,0.12972 1.86259,3.40007 3.6436,7.73475 1.14815,11.2819 -1.36866,2.63522 -2.60789,5.60016 -4.41912,7.9114 -6.67698,0.32048 -13.77811,-0.10179 -20.15936,0.9494 1.51177,4.05656 -5.61363,3.46509 -5.84765,4.65245 -2.21695,3.52787 -7.31598,4.58525 -10.5108,2.13922 -3.41186,-0.32911 -6.20777,-1.45189 -9.66385,-1.24714 -3.7564,-0.11111 -8.08123,0.3606 -12.03457,0.57291 -23.76541,1.58849 -47.573818,3.04366 -71.380857,4.05302 -8.21561,0.31624 -16.73698,-2.43298 -22.06715,-8.98565 -6.56698,-6.55976 -10.57543,-15.32523 -12.52632,-24.30511 -0.39002,-2.53603 -0.24467,-5.81123 2.37724,-7.12398 z"
       id="path1165-7"
       sodipodi:nodetypes="ssssssssssssssssssssss" /><path
       style="fill:#ff0000;stroke-width:0.0559139"
       d="m 35.558173,267.85928 c 5.8077,-0.50781 11.59092,2.03326 17.44352,2.42989 5.29916,2.04829 10.95392,1.27562 16.43072,2.02924 5.928247,2.14191 12.197907,-0.13068 18.194587,1.49946 5.7764,0.58282 11.535863,-0.97718 17.26661,0.52418 5.93399,-0.26812 11.85533,-0.66362 17.81598,-0.29154 5.16617,0.28035 10.20039,0.42892 15.33033,0.44907 5.48701,1.42838 9.36995,-0.73223 13.38159,-3.97818 8.63128,0.57286 17.20219,2.32514 25.75673,3.67208 3.59329,2.16611 3.23551,5.2407 8.30218,3.63766 4.88225,0.26029 10.82946,-1.55029 15.16203,0.12972 1.86259,3.40007 3.6436,7.73475 1.14815,11.2819 -1.36866,2.63522 -2.60789,5.60016 -4.41912,7.9114 -6.67698,0.32048 -13.77811,-0.10179 -20.15936,0.9494 1.51177,4.05656 -5.61363,3.46509 -5.84765,4.65245 -2.21695,3.52787 -7.31598,4.58525 -10.5108,2.13922 -3.41185,-0.32911 -6.20777,-1.45189 -9.66385,-1.24714 -3.7564,-0.11111 -8.08123,0.3606 -12.03457,0.57291 -23.76541,1.58849 -47.57381,3.04366 -71.380847,4.05302 -8.21561,0.31624 -16.73698,-2.43298 -22.06715,-8.98565 -6.56698,-6.55976 -10.57543,-15.32523 -12.52632,-24.30511 -0.39002,-2.53603 -0.24467,-5.81123 2.37724,-7.12398 z"
       id="path1165-8"
       sodipodi:nodetypes="ssssssssssssssssssssss" /><path
       style="fill:#ff0000;stroke-width:0.0559139"
       d="m 35.558173,326.017 c 5.8077,-0.50781 11.59092,2.03326 17.44352,2.42989 5.29916,2.04829 10.95392,1.27562 16.43072,2.02924 5.92825,2.14191 12.19791,-0.13068 18.19459,1.49946 5.7764,0.58282 11.53586,-0.97718 17.266617,0.52418 5.93398,-0.26812 11.85533,-0.66362 17.81598,-0.29154 5.16617,0.28035 10.20038,0.42892 15.33032,0.44907 5.48701,1.42838 9.36995,-0.73223 13.38159,-3.97818 8.63128,0.57286 17.20219,2.32514 25.75673,3.67208 3.59329,2.16611 3.23551,5.2407 8.30218,3.63766 4.88225,0.26029 10.82946,-1.55029 15.16203,0.12972 1.86259,3.40007 3.6436,7.73475 1.14815,11.2819 -1.36866,2.63522 -2.60789,5.60016 -4.41912,7.9114 -6.67698,0.32048 -13.77811,-0.10179 -20.15936,0.9494 1.51177,4.05656 -5.61363,3.46509 -5.84765,4.65245 -2.21695,3.52787 -7.31598,4.58525 -10.5108,2.13922 -3.41186,-0.32911 -6.20777,-1.45189 -9.66385,-1.24714 -3.7564,-0.11111 -8.08123,0.3606 -12.03457,0.57291 -23.76541,1.58849 -47.573807,3.04366 -71.380847,4.05302 -8.21561,0.31624 -16.73698,-2.43298 -22.06715,-8.98565 -6.56698,-6.55976 -10.57543,-15.32523 -12.52632,-24.30511 -0.39002,-2.53603 -0.24467,-5.81123 2.37724,-7.12398 z"
       id="path1165"
       sodipodi:nodetypes="ssssssssssssssssssssss" /><path
       style="fill:#ff0000;stroke-width:0.0496094"
       d="m 33.053964,166.05598 c 0.57747,-1.9869 0.87581,-3.45195 1.45136,-4.73703 0.81368,-3.81605 5.65856,-4.38201 8.79073,-2.97455 11.04,2.80641 21.93113,6.36932 33.27517,7.84721 19.535092,2.81116 39.110546,4.31289 58.924096,5.1712 3.89215,-0.44378 8.53391,1.38993 11.90647,-0.85355 2.33072,-2.93982 7.85973,-2.48431 9.37601,1.12966 0.97396,1.0899 1.49693,2.07278 2.57972,3.446 5.72767,4.64023 15.74981,0.52601 20.97409,3.84133 1.1438,1.49013 4.33631,3.64916 1.62189,5.23721 -1.29907,1.3473 -0.028,4.10921 -2.11027,4.94756 -4.90411,-0.21294 -8.85879,-0.54184 -13.61328,-0.73178 -3.71571,-0.14845 -4.12146,1.37603 -5.91827,3.0812 -3.67542,0.93323 -7.47252,0.22131 -11.01072,0.5225 -2.00589,-0.26673 -3.76714,0.25212 -5.62005,-0.17962 -2.6603,0.0498 -5.08819,0.13833 -7.59138,-0.21142 -3.58187,0.47207 -7.69605,-0.0193 -11.48348,-0.0654 -21.89033,-0.9562 -43.811966,-1.79338 -65.633376,-3.78366 -3.18903,-0.23945 -5.75149,-0.29243 -9.18484,-1.17329 -3.90496,-1.00217 -7.59028,-3.25131 -10.38611,-6.0245 -3.54805,-4.12998 -6.75376,-8.56935 -6.34776,-14.48904 z m 0.0473,2.23244 c 0.17797,-0.12675 -0.17797,-0.12675 0,0 z m 7.63986,13.44418 c 0.17673,0.12234 -0.18138,0.06 0,0 z m 1.19064,0.99219 c 0.17797,0.12676 -0.17798,0.12674 0,0 z"
       id="path556"
       sodipodi:nodetypes="scsssssccsssscccccsssssssss" /><path
       style="fill:#ff0000;stroke-width:0.0508849"
       d="m 266.2732,79.11919 c 0.48074,-1.51651 0.77567,-2.89615 2.24799,-3.41957 1.41262,-0.60766 3.23565,-0.75476 3.96086,-2.34288 1.11413,-1.70284 2.55739,-2.41298 4.10816,-3.72052 8.85965,-10.04621 23.99989,-13.44798 36.48302,-8.8564 8.5901,2.88171 15.60525,9.81088 18.59395,18.36324 2.62249,7.21094 1.49545,15.00472 1.66236,22.50825 -0.23207,3.54189 0.49791,7.14247 -0.24453,10.63128 -1.10097,4.13513 -5.29717,6.77564 -9.47566,6.61059 -16.03163,1.09059 -32.12332,0.40697 -48.15963,1.22814 0.16697,2.24033 -2.91535,4.13894 -4.56058,3.5331 -0.31064,-3.73406 -2.70871,-6.66151 -2.04572,-10.58901 0.14049,-3.04036 -0.61557,-6.26288 0.24188,-9.18593 1.58739,-3.24808 0.21428,-7.20885 0.51237,-10.74131 0.0257,-2.11645 0.33944,-4.20817 -1.53912,-5.24683 0.20421,-1.4099 0.3005,-3.05524 0.0982,-4.43221 -0.66593,-1.31555 -1.64398,-2.92681 -1.88352,-4.33994 z"
       id="path1335"
       sodipodi:nodetypes="csssssssscssssssscsssssssssssssssssssssssssssssssssssssssssssssssssssssssssssssssssssssccsssssssssssssssssscsccssssssssscsssssssssccc" /><path
       style="fill:#ff0000;stroke-width:0.054352"
       d="m 415.38139,120.41489 c -0.76532,-2.54612 -1.21308,-5.35215 -1.36412,-8.02171 0.64432,-1.81323 -0.23458,-4.13697 0.1802,-6.1277 0.95205,-6.02101 2.11635,-12.058724 1.99878,-18.185994 -0.63031,-2.2955 1.30003,-5.62111 -0.39936,-7.33445 -0.84752,-2.51551 0.5246,-5.34515 -0.0698,-7.87873 1.43615,-2.62677 4.52617,-3.83179 6.47099,-6.18883 1.78014,-0.73992 3.46744,0.33591 4.82713,-1.67362 5.80941,-3.74903 12.92739,-5.16544 19.76058,-4.3792 2.5229,-0.0275 5.17165,1.08843 7.59956,1.862 2.63998,1.12675 4.96542,2.64643 7.3802,4.24802 2.0222,1.71656 3.72544,3.84286 5.44087,5.91058 2.80774,4.08091 1.92764,9.19368 2.23855,13.8471 0.28853,3.22767 0.76588,6.45602 1.21464,9.671157 1.62653,0.34855 -0.34261,2.844095 1.616,3.962827 -0.10566,2.65795 0.0257,6.03568 -1.55624,8.65894 -2.34698,4.39182 -7.37177,7.97241 -12.52071,6.63885 -2.5617,-0.21802 -4.93329,-1.02803 -7.43353,-1.21268 -5.12182,-0.15867 -10.3012,-0.27872 -15.35656,0.68604 -2.40185,1.76662 -5.41273,1.24099 -8.20483,1.34032 -2.90357,0.004 -5.80648,0.0993 -8.70827,0.16433 0.45766,1.99287 -1.50639,3.40528 -3.11412,4.01275 z m 54.45633,-28.960344 c -0.18355,-0.63618 0.13224,1.56593 0,0 z m -0.29479,-2.67609 c -0.0803,0.12495 0.0772,0.5964 0,0 z m -0.31751,-6.16971 c -0.0838,-2.74222 -0.16407,1.4981 0,0 z m -0.0643,-1.76541 c -0.0901,0.0696 0.0804,0.35823 0,0 z m -0.0437,-1.3416 c -0.0247,1.09448 0.10691,1.76757 0,0 z"
       id="path1258"
       sodipodi:nodetypes="ssssscssssssssscssssssssssscsssssssssssssssssssssssssssssssssssssscscsssssssscssssscsssssssssssssssssssscssccscccscscccsccssssscssccssscss" /><rect
       style="fill:#ff0000;stroke-width:0.190458"
       id="rect2810"
       width="15"
       height="240"
       x="236.9686"
       y="130.22673"
       ry="3.2298737" /><path
       style="fill:#ff0000;stroke-width:0.0627769"
       d="m 311.10269,370.05502 c -11.19963,0.14623 -4.00297,-15.03689 -6.47514,-21.91977 -1.39676,-45.78307 -2.58798,-91.57235 -4.08945,-137.35224 -9.02317,0.39431 -10.68598,-10.70537 -4.95924,-14.95259 -1.37605,-8.52794 2.64976,-20.97908 -3.08334,-26.92559 -8.70128,-3.25726 -18.21983,-3.09298 -26.99133,-5.46006 -10.67552,-3.98972 -3.50611,-15.50299 5.22578,-15.34608 11.68238,-3.85597 23.06152,-9.66052 35.63523,-9.50965 9.52722,-0.29396 21.9292,-1.93377 29.06121,5.36995 1.33478,9.22901 -17.02793,3.78441 -14.96306,15.50495 0.88283,4.55836 -0.1251,13.07498 1.95073,15.4473 6.28856,-6.70759 4.235,11.69376 -0.79473,3.85587 -0.60639,9.59721 1.95213,22.00705 -0.46107,29.85751 -9.31744,2.57913 -4.79496,14.74104 -4.48458,21.74677 1.09032,21.74993 1.21866,43.58234 2.06834,65.36151 0.76435,24.82846 1.53354,49.6576 2.00035,74.49384 -3.18324,-0.66307 -6.43034,0.0319 -9.6397,-0.17172 z"
       id="path943"
       sodipodi:nodetypes="ccccccccccccccccc" /><ellipse
       style="fill:#ff0000;stroke-width:0.264583"
       id="path557-6-7"
       cx="-253.7337"
       cy="309.49118"
       rx="9.3758783"
       ry="17.201071"
       transform="rotate(-90)" /><ellipse
       style="fill:#ff0000;stroke-width:0.264583"
       id="path557-6-5"
       cx="-253.7337"
       cy="368.91599"
       rx="9.3758783"
       ry="17.201071"
       transform="rotate(-90)" /><ellipse
       style="fill:#ff0000;stroke-width:0.264583"
       id="path557-6-3"
       cx="-253.7337"
       cy="451.00711"
       rx="9.3758783"
       ry="17.201071"
       transform="rotate(-90)" /><path
       style="fill:#ff0000;stroke-width:0.0627769"
       d="m 368.07332,138.39846 c 11.19963,-0.14623 4.00297,15.03689 6.47514,21.91977 1.39676,45.78307 2.58798,91.57235 4.08945,137.35224 9.02317,-0.39431 10.68598,10.70537 4.95924,14.95259 1.37605,8.52794 -2.64976,20.97908 3.08334,26.92559 8.70128,3.25726 18.21983,3.09298 26.99133,5.46006 10.67552,3.98972 3.50611,15.50299 -5.22578,15.34608 -11.68238,3.85597 -23.06152,9.66052 -35.63523,9.50965 -9.52722,0.29396 -21.9292,1.93377 -29.06121,-5.36995 -1.33478,-9.22901 17.02793,-3.78441 14.96306,-15.50495 -0.88283,-4.55836 0.1251,-13.07498 -1.95073,-15.4473 -6.28856,6.70759 -4.235,-11.69376 0.79473,-3.85587 0.60639,-9.59721 -1.95213,-22.00705 0.46107,-29.85751 9.31744,-2.57913 4.79496,-14.74104 4.48458,-21.74677 -1.09032,-21.74993 -1.21866,-43.58234 -2.06834,-65.36151 -0.76435,-24.82846 -1.53354,-49.6576 -2.00035,-74.49384 3.18324,0.66307 6.43034,-0.0319 9.6397,0.17172 z"
       id="path943-9"
       sodipodi:nodetypes="ccccccccccccccccc" /><path
       style="fill:#ff0000;stroke-width:0.0627769"
       d="m 452.5575,370.05502 c -11.19963,0.14623 -4.00297,-15.03689 -6.47514,-21.91977 -1.39676,-45.78307 -2.58798,-91.57235 -4.08945,-137.35224 -9.02317,0.39431 -10.68598,-10.70537 -4.95924,-14.95259 -1.37605,-8.52794 2.64976,-20.97908 -3.08334,-26.92559 -8.70128,-3.25726 -18.21983,-3.09298 -26.99133,-5.46006 -10.67552,-3.98972 -3.50611,-15.50299 5.22578,-15.34608 11.68238,-3.85597 23.06152,-9.66052 35.63523,-9.50965 9.52722,-0.29396 21.9292,-1.93377 29.06121,5.36995 1.33478,9.22901 -17.02793,3.78441 -14.96306,15.50495 0.88283,4.55836 -0.1251,13.07498 1.95073,15.4473 6.28856,-6.70759 4.235,11.69376 -0.79473,3.85587 -0.60639,9.59721 1.95213,22.00705 -0.46107,29.85751 -9.31744,2.57913 -4.79496,14.74104 -4.48458,21.74677 1.09032,21.74993 1.21866,43.58234 2.06834,65.36151 0.76435,24.82846 1.53354,49.6576 2.00035,74.49384 -3.18324,-0.66307 -6.43034,0.0319 -9.6397,-0.17172 z"
       id="path943-2"
       sodipodi:nodetypes="ccccccccccccccccc" /><ellipse
       style="fill:#ff0000;stroke-width:0.264583"
       id="path511"
       cx="116.51631"
       cy="349.36935"
       rx="9.3908682"
       ry="23.863966" /><ellipse
       style="fill:#ff0000;stroke-width:0.264583"
       id="path511-7"
       cx="116.21757"
       cy="290.46512"
       rx="9.3908682"
       ry="23.863966" /><ellipse
       style="fill:#ff0000;stroke-width:0.264583"
       id="path511-5"
       cx="117.03612"
       cy="232.02802"
       rx="9.3908682"
       ry="23.863966" /><ellipse
       style="fill:#ff0000;stroke-width:0.264583"
       id="path557"
       cx="117.62979"
       cy="181.03935"
       rx="9.3758783"
       ry="17.201071" /><rect
       style="fill:#ff0000;stroke-width:0.207958"
       id="rect611"
       width="20.834686"
       height="37.264072"
       x="91.654373"
       y="84.20118" /><ellipse
       style="fill:#ff0000;stroke-width:0.264583"
       id="path557-6"
       cx="-253.7337"
       cy="244.37271"
       rx="9.3758783"
       ry="17.201071"
       transform="rotate(-90)" /><ellipse
       style="fill:#ff0000;stroke-width:0.264583"
       id="path557-6-56"
       cx="94.375"
       cy="329.03189"
       rx="9.3758783"
       ry="17.201071"
       transform="matrix(0,1,1,0,0,0)" /><ellipse
       style="fill:#ff0000;stroke-width:0.264583"
       id="path557-6-2"
       cx="-92.957901"
       cy="464.91693"
       rx="9.3758783"
       ry="17.201071"
       transform="rotate(-90)" /></g></svg>
