<?xml version="1.0" encoding="UTF-8" standalone="no"?>
<!-- Created with Inkscape (http://www.inkscape.org/) -->

<svg
   version="1.1"
   id="svg1155"
   width="183.98543"
   height="650.77838"
   viewBox="0 0 183.98543 650.77838"
   sodipodi:docname="Hnifur_Stor.svg"
   inkscape:version="1.2.2 (b0a8486541, 2022-12-01)"
   xmlns:inkscape="http://www.inkscape.org/namespaces/inkscape"
   xmlns:sodipodi="http://sodipodi.sourceforge.net/DTD/sodipodi-0.dtd"
   xmlns="http://www.w3.org/2000/svg"
   xmlns:svg="http://www.w3.org/2000/svg">
  <defs
     id="defs1159" />
  <sodipodi:namedview
     id="namedview1157"
     pagecolor="#ffffff"
     bordercolor="#000000"
     borderopacity="0.25"
     inkscape:showpageshadow="2"
     inkscape:pageopacity="0.0"
     inkscape:pagecheckerboard="0"
     inkscape:deskcolor="#d1d1d1"
     showgrid="false"
     inkscape:zoom="0.64743822"
     inkscape:cx="121.24709"
     inkscape:cy="122.01937"
     inkscape:window-width="1920"
     inkscape:window-height="1118"
     inkscape:window-x="0"
     inkscape:window-y="0"
     inkscape:window-maximized="1"
     inkscape:current-layer="g1161" />
  <g
     inkscape:groupmode="layer"
     inkscape:label="Image"
     id="g1161"
     transform="translate(-68.176224,-19.708742)">
    <path
       style="fill:#000000;stroke-width:0.211328"
       d="m 75.900729,657.27304 c -1.919281,-21.95037 7.68475,-43.80819 9.183823,-65.92825 7.74156,-20.02831 4.821247,-41.40066 7.66956,-62.10038 8.095418,-22.40597 -0.493905,-46.10232 5.667272,-68.76693 2.202796,-21.83207 -3.69327,-43.6001 1.981156,-65.25962 -1.01337,-22.42764 -2.508188,-44.80751 -1.101887,-67.33595 1.059577,-19.52569 1.621117,-38.55266 1.697277,-57.94142 5.3986,-20.73828 -2.767485,-35.41398 -15.035653,-50.57609 2.165142,-32.62213 8.787923,-65.01613 13.878738,-97.34826 8.186865,-13.58094 19.807355,-12.22868 13.748615,-31.378321 0.98378,-18.452599 -5.85935,-40.930244 0.4903,-57.305286 12.85066,-7.039738 29.2337,-13.771089 42.64029,-4.339469 9.95986,5.172882 21.16594,9.856598 29.90134,16.702172 1.21125,25.235842 -0.3847,52.074751 3.58829,76.192844 15.33187,-5.71375 13.0964,21.21689 17.58405,22.10137 13.3337,8.37901 17.3301,27.65095 8.08525,39.72584 -1.24389,12.89524 -5.48745,23.46245 -4.71361,36.52482 -0.41992,14.19742 1.3629,30.54321 2.16533,45.48498 6.00374,89.82195 11.50361,179.80648 15.3185,269.78582 1.19525,31.05112 -9.1955,63.25787 -33.96149,83.40342 -24.7928,24.82006 -57.92216,39.97011 -91.86187,47.34356 -9.585001,1.47408 -21.963697,0.92473 -26.925281,-8.98485 z"
       id="path1165"
       sodipodi:nodetypes="ssssssssssssssssssssss" />
  </g>
</svg>
