<?xml version="1.0" encoding="UTF-8" standalone="no"?>
<!-- Created with Inkscape (http://www.inkscape.org/) -->

<svg
   version="1.1"
   id="svg933"
   width="312.95062"
   height="929.44049"
   viewBox="0 0 312.95062 929.44048"
   sodipodi:docname="Skifmal.svg"
   inkscape:version="1.2.2 (b0a8486541, 2022-12-01)"
   xmlns:inkscape="http://www.inkscape.org/namespaces/inkscape"
   xmlns:sodipodi="http://sodipodi.sourceforge.net/DTD/sodipodi-0.dtd"
   xmlns="http://www.w3.org/2000/svg"
   xmlns:svg="http://www.w3.org/2000/svg">
  <defs
     id="defs937" />
  <sodipodi:namedview
     id="namedview935"
     pagecolor="#ffffff"
     bordercolor="#000000"
     borderopacity="0.25"
     inkscape:showpageshadow="2"
     inkscape:pageopacity="0.0"
     inkscape:pagecheckerboard="0"
     inkscape:deskcolor="#d1d1d1"
     showgrid="false"
     inkscape:zoom="0.39406893"
     inkscape:cx="-148.45119"
     inkscape:cy="248.68746"
     inkscape:window-width="1920"
     inkscape:window-height="1118"
     inkscape:window-x="0"
     inkscape:window-y="0"
     inkscape:window-maximized="1"
     inkscape:current-layer="g939" />
  <g
     inkscape:groupmode="layer"
     inkscape:label="Image"
     id="g939">
    <path
       style="fill:#000000;stroke-width:0.237267"
       d="m 199.385,888.31393 c -42.32929,0.55269 -15.12933,-56.83233 -24.47294,-82.84639 -5.27911,-173.03838 -9.78137,-346.10021 -15.4562,-519.12657 -34.10334,1.49031 -40.38794,-40.46125 -18.74359,-56.51373 C 135.51144,197.59565 150.72713,150.53625 129.0587,128.06122 96.171988,115.75035 60.196339,116.37123 27.044214,107.42478 -13.304188,92.345529 13.792806,48.830793 46.795216,49.42384 90.949105,34.850117 133.95685,12.911643 181.47953,13.481857 c 36.00842,-1.11102 82.88203,-7.3087317 109.83766,20.295888 5.04482,34.881302 -64.35753,14.303293 -56.5533,58.601379 3.33669,17.228466 -0.47282,49.417246 7.37283,58.383496 23.76779,-25.35152 16.00632,44.19691 -3.0037,14.57339 -2.29186,36.27292 7.37813,83.17624 -1.74264,112.84729 -35.21551,9.74788 -18.12265,55.71416 -16.94958,82.19248 4.12088,82.20449 4.60597,164.72067 7.81734,247.03563 2.8889,93.83986 5.79607,187.68229 7.56039,281.55152 -12.03115,-2.50606 -24.30365,0.12071 -36.43353,-0.649 z"
       id="path943"
       sodipodi:nodetypes="ccccccccccccccccc" />
  </g>
</svg>
